<svg width="50" height="50" viewBox="0 0 50 50" fill="none" xmlns="http://www.w3.org/2000/svg">
<rect x="49.5" y="49.5" width="49" height="49" rx="24.5" transform="rotate(180 49.5 49.5)" stroke="#3F3F46"/>
<path d="M21.0399 25.6C21.1824 25.6 21.325 25.6525 21.4375 25.765C21.655 25.9825 21.655 26.3425 21.4375 26.56L19.045 28.9525L21.4375 31.345C21.655 31.5625 21.655 31.9225 21.4375 32.14C21.22 32.3575 20.86 32.3575 20.6425 32.14L17.8524 29.35C17.7474 29.245 17.6875 29.1025 17.6875 28.9525C17.6875 28.8025 17.7474 28.66 17.8524 28.555L20.6425 25.765C20.755 25.66 20.8974 25.6 21.0399 25.6Z" fill="white"/>
<path d="M18.25 28.39L31.75 28.39C32.0575 28.39 32.3125 28.645 32.3125 28.9525C32.3125 29.26 32.0575 29.515 31.75 29.515L18.25 29.515C17.9425 29.515 17.6875 29.26 17.6875 28.9525C17.6875 28.645 17.9425 28.39 18.25 28.39Z" fill="white"/>
<path d="M28.96 17.6875C29.1025 17.6875 29.245 17.74 29.3575 17.8525L32.1475 20.6425C32.2525 20.7475 32.3125 20.89 32.3125 21.04C32.3125 21.19 32.2525 21.3325 32.1475 21.4375L29.3575 24.2275C29.14 24.445 28.78 24.445 28.5625 24.2275C28.345 24.01 28.345 23.65 28.5625 23.4325L30.955 21.04L28.5625 18.6475C28.345 18.43 28.345 18.07 28.5625 17.8525C28.6675 17.74 28.81 17.6875 28.96 17.6875Z" fill="white"/>
<path d="M18.25 20.485L31.75 20.485C32.0575 20.485 32.3125 20.74 32.3125 21.0475C32.3125 21.355 32.0575 21.61 31.75 21.61L18.25 21.61C17.9425 21.61 17.6875 21.355 17.6875 21.0475C17.6875 20.74 17.9425 20.485 18.25 20.485Z" fill="white"/>
</svg>
